<svg width="795" height="1008" viewBox="0 0 795 1008" fill="none" xmlns="http://www.w3.org/2000/svg">
<path d="M96.9454 613.068C127.705 538.348 238.011 486.257 289.32 469.552C309.852 518.792 366.635 614.312 320.242 715.712C286.006 790.54 183.48 833.042 130.436 842.487C106.456 797.148 66.1861 687.789 96.9454 613.068Z" fill="#1C4C9C" fill-opacity="0.15"/>
<path d="M216.839 740.264C293.345 714.262 405.151 763.051 451.491 790.696C427.922 838.556 393.355 944.167 286.472 975.951C207.597 999.406 108.132 950.167 66.1169 916.438C84.4803 868.548 140.334 766.267 216.839 740.264Z" fill="#008FD5" fill-opacity="0.1"/>
<path d="M209.338 135.771C264.325 76.562 385.89 66.417 439.799 68.7456C441.779 122.058 461.5 231.418 382.524 310.138C324.242 368.23 213.324 372.12 160.333 362.384C153.757 311.517 154.351 194.98 209.338 135.771Z" fill="#008FD5" fill-opacity="0.1"/>
<path d="M500.812 494.857C570.723 454.339 689.932 480.227 740.798 498.235C727.084 549.792 713.926 660.133 615.364 712.284C542.63 750.77 435.432 722.018 387.613 697.195C396.216 646.631 430.9 535.374 500.812 494.857Z" fill="#008FD5" fill-opacity="0.1"/>
</svg>
